<?xml version="1.0" standalone="no"?>
<!DOCTYPE svg PUBLIC "-//W3C//DTD SVG 20010904//EN"
 "http://www.w3.org/TR/2001/REC-SVG-20010904/DTD/svg10.dtd">
<svg version="1.0" xmlns="http://www.w3.org/2000/svg"
 width="700.000000pt" height="700.000000pt" viewBox="0 0 700.000000 700.000000"
 preserveAspectRatio="xMidYMid meet">
<metadata>
Created by potrace 1.11, written by Peter Selinger 2001-2013
</metadata>
<g transform="translate(0.000000,700.000000) scale(0.100000,-0.100000)"
fill="#000000" stroke="none">
<path d="M3780 5538 c-212 -20 -393 -77 -532 -168 -76 -50 -197 -170 -224
-222 l-14 -27 43 -5 c23 -3 98 -10 167 -16 155 -14 352 -52 432 -85 56 -23 66
-24 130 -14 111 17 1212 6 1308 -14 147 -29 229 -73 276 -149 63 -99 84 -327
44 -482 -34 -132 -99 -201 -234 -245 -121 -40 -185 -45 -618 -45 l-417 -1 -4
40 -4 40 -1 -41 -2 -41 -107 4 c-303 11 -459 57 -530 156 -62 87 -91 113 -145
130 -72 22 -209 37 -350 37 l-118 0 0 50 0 50 103 0 c56 0 147 -5 202 -10 221
-21 287 -54 375 -184 24 -35 46 -55 85 -72 68 -32 221 -54 369 -54 l119 0 -7
53 c-36 275 -180 508 -391 635 -36 21 -62 42 -57 47 4 4 1 5 -6 1 -7 -4 -19
-2 -27 4 -8 7 -15 10 -15 7 0 -3 -26 5 -57 18 -67 27 -256 60 -423 75 -63 5
-360 11 -660 12 -495 3 -554 1 -645 -16 -178 -33 -327 -89 -442 -167 -76 -51
-184 -169 -230 -250 -162 -287 -177 -746 -34 -1046 115 -240 325 -404 615
-478 181 -46 253 -50 861 -50 618 0 660 3 845 51 208 54 413 188 508 332 21
32 4 42 -70 42 -148 0 -372 48 -523 110 -60 26 -75 28 -105 20 -73 -21 -296
-29 -718 -24 -240 3 -480 10 -532 15 -213 24 -334 88 -394 207 -36 73 -47 137
-47 267 1 291 93 403 364 444 83 13 251 16 620 13 l307 -2 0 -36 c0 -60 20
-175 47 -264 104 -352 378 -565 815 -636 131 -21 1107 -33 1281 -15 320 32
542 122 700 284 188 193 273 479 246 830 -13 174 -42 285 -110 417 -139 271
-401 421 -799 459 -139 13 -1149 21 -1270 9z"/>
<path d="M4260 2898 l0 -543 -182 -182 -183 -183 623 0 c579 0 622 -1 622 -17
0 -13 3 -14 11 -6 9 9 -35 61 -170 203 l-181 192 0 539 0 539 -270 0 -270 0 0
-542z"/>
<path d="M2330 2383 l0 -548 -176 -176 -176 -176 614 -6 c396 -5 614 -10 616
-17 5 -15 22 -12 22 3 0 7 -81 99 -180 204 l-180 191 0 536 0 536 -270 0 -270
0 0 -547z"/>
</g>
</svg>
