<?xml version="1.0" encoding="UTF-8" standalone="no"?>
<!-- Created with Inkscape (http://www.inkscape.org/) -->

<svg
   xmlns:dc="http://purl.org/dc/elements/1.1/"
   xmlns:cc="http://creativecommons.org/ns#"
   xmlns:rdf="http://www.w3.org/1999/02/22-rdf-syntax-ns#"
   xmlns:svg="http://www.w3.org/2000/svg"
   xmlns="http://www.w3.org/2000/svg"
   xmlns:sodipodi="http://sodipodi.sourceforge.net/DTD/sodipodi-0.dtd"
   xmlns:inkscape="http://www.inkscape.org/namespaces/inkscape"
   width="267.42856mm"
   height="283.30356mm"
   viewBox="0 0 267.42856 283.30356"
   version="1.1"
   id="svg1141"
   inkscape:version="0.92.3 (2405546, 2018-03-11)"
   sodipodi:docname="GreenStreamIcon.svg">
  <defs
     id="defs1135" />
  <sodipodi:namedview
     id="base"
     pagecolor="#ffffff"
     bordercolor="#666666"
     borderopacity="1.0"
     inkscape:pageopacity="0.0"
     inkscape:pageshadow="2"
     inkscape:zoom="0.35"
     inkscape:cx="1319.6626"
     inkscape:cy="395.41063"
     inkscape:document-units="mm"
     inkscape:current-layer="layer1"
     showgrid="false"
     inkscape:lockguides="false"
     inkscape:window-width="1853"
     inkscape:window-height="1025"
     inkscape:window-x="67"
     inkscape:window-y="27"
     inkscape:window-maximized="1" />
  <metadata
     id="metadata1138">
    <rdf:RDF>
      <cc:Work
         rdf:about="">
        <dc:format>image/svg+xml</dc:format>
        <dc:type
           rdf:resource="http://purl.org/dc/dcmitype/StillImage" />
        <dc:title></dc:title>
      </cc:Work>
    </rdf:RDF>
  </metadata>
  <g
     inkscape:label="Ebene 1"
     inkscape:groupmode="layer"
     id="layer1"
     transform="translate(452.72619,107.34522)">
    <g
       style="display:inline"
       transform="matrix(0.78655462,0,0,0.8332458,-263.54508,890.228)"
       id="g1203"
       inkscape:export-xdpi="48"
       inkscape:export-ydpi="48">
      <circle
         style="fill:#ececec;fill-opacity:1;stroke:none;stroke-width:2.42541361;stroke-miterlimit:4;stroke-dasharray:none;stroke-opacity:1"
         id="circle1175"
         cx="-70.518723"
         cy="-1027.2136"
         r="170"
         inkscape:export-xdpi="300"
         inkscape:export-ydpi="300" />
      <path
         id="path1177"
         d="m -52.479424,-1052.1349 c 0.13763,-41.5721 -35.61092,-35.8306 -62.906776,-36.154 -25.55444,-0.3027 -62.6536,-5.9406 -62.19401,36.154 0.43791,40.0979 38.89657,35.6473 61.83766,35.6686 25.334146,0.023 63.127106,5.4192 63.263126,-35.6686 z"
         style="fill:none;fill-opacity:1;stroke:#008000;stroke-width:25.56824875;stroke-miterlimit:4;stroke-dasharray:none;stroke-opacity:0.98823529"
         inkscape:connector-curvature="0" />
      <path
         inkscape:connector-curvature="0"
         style="fill:none;fill-opacity:1;stroke:#44aa00;stroke-width:25.56824875;stroke-miterlimit:4;stroke-dasharray:none;stroke-opacity:1"
         d="m -52.479424,-1052.1349 c 0.13763,-41.5721 -35.61092,-35.8306 -62.906776,-36.154 -25.55444,-0.3027 -62.6536,-5.9406 -62.19401,36.154 0.43791,40.0979 38.89657,35.6473 61.83766,35.6686 25.334146,0.023 63.127106,5.4192 63.263126,-35.6686 z"
         id="path1179" />
      <path
         inkscape:connector-curvature="0"
         style="fill:none;fill-opacity:1;stroke:#71c837;stroke-width:25.56824875;stroke-miterlimit:4;stroke-dasharray:none;stroke-opacity:0.98823529"
         d="m 36.546456,-1077.4593 c 0.13763,-41.5721 -35.61091967,-35.8306 -62.90678,-36.154 -25.55444,-0.3027 -62.65359,-5.9406 -62.19401,36.154 0.43792,40.0978 38.89657,35.6473 61.83765,35.6686 25.3341603,0.023 63.12711,5.4192 63.26314,-35.6686 z"
         id="path1181" />
      <path
         style="fill:#71c837;fill-opacity:1;stroke:#44aa00;stroke-width:24.23352432;stroke-miterlimit:4;stroke-dasharray:none;stroke-opacity:0.98823529"
         d="m -177.80037,-1052.1786 c -0.10344,-1.1397 -0.16543,-2.323 -0.18058,-3.5552 -0.46215,-37.6039 36.84476,-32.5676 62.54223,-32.2972 26.477866,0.2787 60.863586,-4.4822 63.138526,28.5153 -2.92738,-31.8473 -36.86145,-27.1902 -63.055386,-27.4659 -25.69746,-0.2704 -63.00396,-5.3068 -62.54181,32.2972 0.0105,0.858 0.0433,1.6929 0.097,2.5058 z"
         id="path1183"
         inkscape:connector-curvature="0" />
      <path
         sodipodi:nodetypes="cc"
         inkscape:connector-curvature="0"
         id="path1185"
         d="m -79.324684,-1033.5133 c 8.83626,4.1015 25.59723,7.0721 38.55357,7.0871"
         style="fill:none;stroke:#e6e6e6;stroke-width:5;stroke-linecap:butt;stroke-linejoin:miter;stroke-miterlimit:4;stroke-dasharray:none;stroke-opacity:1" />
      <path
         style="fill:none;fill-opacity:1;stroke:#e6e6e6;stroke-width:5;stroke-linecap:butt;stroke-linejoin:miter;stroke-miterlimit:4;stroke-dasharray:none;stroke-opacity:1"
         d="m -61.748794,-1097.3912 c -8.91725,-4.3426 -38.675506,-5.5961 -50.425756,-6.103"
         id="path1187"
         inkscape:connector-curvature="0"
         sodipodi:nodetypes="cc" />
      <path
         sodipodi:nodetypes="cc"
         inkscape:connector-curvature="0"
         id="path1189"
         d="m -104.28454,-1072.3503 c 14.877316,0.146 31.053776,-0.7156 33.992126,7.276"
         style="fill:none;stroke:#e6e6e6;stroke-width:5;stroke-linecap:butt;stroke-linejoin:miter;stroke-miterlimit:4;stroke-dasharray:none;stroke-opacity:1" />
      <path
         sodipodi:nodetypes="cc"
         inkscape:connector-curvature="0"
         id="path1191"
         d="m -70.292414,-1065.0743 c 4.12127,4.4683 7.8014,9.0462 34.21648,7.9781"
         style="fill:none;stroke:#e6e6e6;stroke-width:5;stroke-linecap:butt;stroke-linejoin:miter;stroke-miterlimit:4;stroke-dasharray:none;stroke-opacity:1" />
      <g
         id="g1197"
         transform="translate(205.66936,-1268.6024)">
        <rect
           y="269.54953"
           x="-332.95639"
           height="57.196053"
           width="25.828302"
           id="rect1193"
           style="fill:#554400;fill-opacity:1;stroke:none;stroke-width:21.81427956;stroke-miterlimit:4;stroke-dasharray:none;stroke-opacity:0.98823529" />
        <path
           inkscape:connector-curvature="0"
           id="path1195"
           d="m -319.26871,309.01075 -31.04747,30.85009 60.2958,0.17353 z m 29.24833,31.02362 -0.0832,1.09352 0.57524,-0.57157 z"
           style="fill:#554400;fill-opacity:1;stroke:none;stroke-width:25.56861877;stroke-miterlimit:4;stroke-dasharray:none;stroke-opacity:0.98823529" />
      </g>
      <rect
         y="-1023.9994"
         x="-33.54892"
         height="57.196053"
         width="25.828302"
         id="rect1199"
         style="fill:#554400;fill-opacity:1;stroke:none;stroke-width:21.81427956;stroke-miterlimit:4;stroke-dasharray:none;stroke-opacity:0.98823529" />
      <path
         inkscape:connector-curvature="0"
         id="path1201"
         d="m -19.861254,-984.5382 -31.04747,30.85009 60.2958003,0.17353 z m 29.2483303,31.02362 -0.0832,1.09352 0.57524,-0.57157 z"
         style="fill:#554400;fill-opacity:1;stroke:none;stroke-width:25.56861877;stroke-miterlimit:4;stroke-dasharray:none;stroke-opacity:0.98823529" />
    </g>
  </g>
</svg>
